<svg xmlns="http://www.w3.org/2000/svg" width="34" height="25" viewBox="0 0 34 25">
  <g id="Group_12" data-name="Group 12" transform="translate(-25 -284)">
    <g id="Rectangle_22" data-name="Rectangle 22" transform="translate(25 284)" fill="#fff" stroke="#4c50c9" stroke-width="2">
      <rect width="9" height="11" rx="2" stroke="none"/>
      <rect x="1" y="1" width="7" height="9" rx="1" fill="none"/>
    </g>
    <g id="Rectangle_52" data-name="Rectangle 52" transform="translate(38 284)" fill="#fff" stroke="#4c50c9" stroke-width="2">
      <rect width="9" height="11" rx="2" stroke="none"/>
      <rect x="1" y="1" width="7" height="9" rx="1" fill="none"/>
    </g>
    <g id="Rectangle_54" data-name="Rectangle 54" transform="translate(50 284)" fill="#fff" stroke="#4c50c9" stroke-width="2">
      <rect width="9" height="11" rx="2" stroke="none"/>
      <rect x="1" y="1" width="7" height="9" rx="1" fill="none"/>
    </g>
    <g id="Rectangle_50" data-name="Rectangle 50" transform="translate(25 298)" fill="#fff" stroke="#4c50c9" stroke-width="2">
      <rect width="9" height="11" rx="2" stroke="none"/>
      <rect x="1" y="1" width="7" height="9" rx="1" fill="none"/>
    </g>
    <g id="Rectangle_51" data-name="Rectangle 51" transform="translate(38 298)" fill="#fff" stroke="#4c50c9" stroke-width="2">
      <rect width="9" height="11" rx="2" stroke="none"/>
      <rect x="1" y="1" width="7" height="9" rx="1" fill="none"/>
    </g>
    <g id="Rectangle_53" data-name="Rectangle 53" transform="translate(50 298)" fill="#fff" stroke="#4c50c9" stroke-width="2">
      <rect width="9" height="11" rx="2" stroke="none"/>
      <rect x="1" y="1" width="7" height="9" rx="1" fill="none"/>
    </g>
  </g>
</svg>
