<svg xmlns="http://www.w3.org/2000/svg" width="36" height="29.833" viewBox="0 0 36 29.833">
  <g id="Group_16" data-name="Group 16" transform="translate(-25 -208.167)">
    <g id="Subtraction_4" data-name="Subtraction 4" transform="translate(2015 208)" fill="#fff" stroke-linejoin="round">
      <path d="M -1958.00048828125 28.99970054626465 L -1986.000366210938 28.99970054626465 C -1987.654418945312 28.99970054626465 -1989 27.65409088134766 -1989 26.00010108947754 L -1989 8.000101089477539 C -1989 6.345621109008789 -1987.654418945312 4.999600887298584 -1986.000366210938 4.999600887298584 L -1965.999755859375 4.999600887298584 L -1965.999755859375 7.000200748443604 C -1965.999755859375 9.756991386413574 -1963.756958007812 11.99980068206787 -1961.000122070312 11.99980068206787 L -1955 11.99980068206787 L -1955 26.00010108947754 C -1955 27.65409088134766 -1956.346069335938 28.99970054626465 -1958.00048828125 28.99970054626465 Z" stroke="none"/>
      <path d="M -1958.00048828125 27.99970054626465 C -1956.8974609375 27.99970054626465 -1956 27.10268020629883 -1956 26.00010108947754 L -1956 12.99980068206787 L -1961.000122070312 12.99980068206787 C -1964.308349609375 12.99980068206787 -1966.999755859375 10.30839061737061 -1966.999755859375 7.000200748443604 L -1966.999755859375 5.999600887298584 L -1986.000366210938 5.999600887298584 C -1987.10302734375 5.999600887298584 -1988 6.897020816802979 -1988 8.000101089477539 L -1988 26.00010108947754 C -1988 27.10268020629883 -1987.10302734375 27.99970054626465 -1986.000366210938 27.99970054626465 L -1958.00048828125 27.99970054626465 M -1958.00048828125 29.99970054626465 L -1986.000366210938 29.99970054626465 C -1988.205810546875 29.99970054626465 -1990 28.20549011230469 -1990 26.00010108947754 L -1990 8.000101089477539 C -1990 5.794220924377441 -1988.205810546875 3.999600887298584 -1986.000366210938 3.999600887298584 L -1964.999755859375 3.999600887298584 L -1964.999755859375 7.000200748443604 C -1964.999755859375 9.205591201782227 -1963.20556640625 10.99980068206787 -1961.000122070312 10.99980068206787 L -1954 10.99980068206787 L -1954 26.00010108947754 C -1954 28.20549011230469 -1955.794555664062 29.99970054626465 -1958.00048828125 29.99970054626465 Z" stroke="none" fill="#4c50c9"/>
    </g>
    <g id="Ellipse_1" data-name="Ellipse 1" transform="translate(31 215)" fill="#fff" stroke="#4c50c9" stroke-width="2">
      <circle cx="5" cy="5" r="5" stroke="none"/>
      <circle cx="5" cy="5" r="4" fill="none"/>
    </g>
    <path id="Path_2" data-name="Path 2" d="M2016.667,162.333c1.7-.875,8.3-3,8.3-3l6.741,3L2042,155l7.667,7.333" transform="translate(-1990 71)" fill="none" stroke="#4c50c9" stroke-width="2"/>
    <g id="Group_15" data-name="Group 15" transform="translate(0 -1)">
      <path id="Path_20" data-name="Path 20" d="M2042.333,214H2050" transform="translate(-1990)" fill="none" stroke="#4c50c9" stroke-linecap="round" stroke-width="2"/>
      <path id="Path_21" data-name="Path 21" d="M2042.333,214H2050" transform="translate(270.167 -1832.167) rotate(90)" fill="none" stroke="#4c50c9" stroke-linecap="round" stroke-width="2"/>
    </g>
  </g>
</svg>
