<svg xmlns="http://www.w3.org/2000/svg" width="36" height="28" viewBox="0 0 36 28">
  <g id="Group_14" data-name="Group 14" transform="translate(-25 -463)">
    <g id="Subtraction_2" data-name="Subtraction 2" transform="translate(2015 770.065)" fill="none">
      <path d="M-1958-279.065h-28a4,4,0,0,1-4-4v-20a4,4,0,0,1,4-4h24.808l7.192,7.746v16.254A4,4,0,0,1-1958-279.065Z" stroke="none"/>
      <path d="M -1958.00048828125 -281.0648193359375 C -1956.8974609375 -281.0648193359375 -1956 -281.9622497558594 -1956 -283.0653076171875 L -1956 -298.5336303710938 L -1962.064208984375 -305.064697265625 L -1986.000366210938 -305.064697265625 C -1987.10302734375 -305.064697265625 -1988 -304.1676635742188 -1988 -303.0650939941406 L -1988 -283.0653076171875 C -1988 -281.9622497558594 -1987.10302734375 -281.0648193359375 -1986.000366210938 -281.0648193359375 L -1958.00048828125 -281.0648193359375 M -1958.00048828125 -279.0648193359375 L -1986.000366210938 -279.0648193359375 C -1988.205810546875 -279.0648193359375 -1990 -280.8594360351562 -1990 -283.0653076171875 L -1990 -303.0650939941406 C -1990 -305.2704772949219 -1988.205810546875 -307.064697265625 -1986.000366210938 -307.064697265625 L -1961.192016601562 -307.064697265625 L -1954 -299.3189697265625 L -1954 -283.0653076171875 C -1954 -280.8594360351562 -1955.794555664062 -279.0648193359375 -1958.00048828125 -279.0648193359375 Z" stroke="none" fill="#4c50c9"/>
    </g>
    <g id="Intersection_1" data-name="Intersection 1" transform="translate(2015 460)" fill="none">
      <path d="M-1982,14a4,4,0,0,1-4-4V4.461A3.992,3.992,0,0,1-1985.724,3h22.449A3.989,3.989,0,0,1-1963,4.461V10a4,4,0,0,1-4,4Z" stroke="none"/>
      <path d="M -1967.00048828125 12.00040054321289 C -1965.8974609375 12.00040054321289 -1965 11.1029806137085 -1965 9.999900817871094 L -1965 5.000600814819336 L -1983.999389648438 5.000600814819336 L -1983.999389648438 9.999900817871094 C -1983.999389648438 11.1029806137085 -1983.102416992188 12.00040054321289 -1981.999877929688 12.00040054321289 L -1967.00048828125 12.00040054321289 M -1967.00048828125 14.00040054321289 L -1981.999877929688 14.00040054321289 C -1984.209350585938 14.00040054321289 -1985.999389648438 12.20940113067627 -1985.999389648438 9.999900817871094 L -1985.999389648438 4.461300849914551 C -1985.999389648438 3.945820569992065 -1985.90185546875 3.453120708465576 -1985.724365234375 3.000600576400757 L -1963.275146484375 3.000600576400757 C -1963.097534179688 3.453120708465576 -1963 3.945820569992065 -1963 4.461300849914551 L -1963 9.999900817871094 C -1963 12.20940113067627 -1964.790893554688 14.00040054321289 -1967.00048828125 14.00040054321289 Z" stroke="none" fill="#4c50c9"/>
    </g>
    <path id="Path_16" data-name="Path 16" d="M2019.5,489V477.5h23.125v12.625" transform="translate(-1990)" fill="none" stroke="#4c50c9" stroke-linejoin="round" stroke-width="2"/>
    <path id="Path_17" data-name="Path 17" d="M2023,481.125h7" transform="translate(-1990)" fill="none" stroke="#4c50c9" stroke-linecap="round" stroke-width="2"/>
    <path id="Path_18" data-name="Path 18" d="M2023,481.125h12.5" transform="translate(-1990 4)" fill="none" stroke="#4c50c9" stroke-linecap="round" stroke-width="2"/>
    <rect id="Rectangle_65" data-name="Rectangle 65" width="3" height="5" transform="translate(44 466)" fill="#4c50c9"/>
  </g>
</svg>
